<?xml version="1.0" encoding="utf-8"?>
<!-- Generator: Adobe Illustrator 28.0.0, SVG Export Plug-In . SVG Version: 6.00 Build 0)  -->
<svg version="1.0" id="Layer_1" xmlns="http://www.w3.org/2000/svg" xmlns:xlink="http://www.w3.org/1999/xlink" x="0px" y="0px"
	 width="130px" height="50px" viewBox="0 0 130 50" enable-background="new 0 0 130 50" xml:space="preserve">
<g>
	<g>
		<path fill="#0B0B0D" d="M44.7,27.1V17h4.7v9.5c0,2.5,1.3,3.9,3.5,3.9c2.2,0,3.4-1.5,3.4-3.9V17H61v10c0,4.7-3.2,7.8-8.1,7.8
			C48,34.9,44.7,31.7,44.7,27.1L44.7,27.1z"/>
		<path fill="#0B0B0D" d="M81,23.9v10.5h-4.7v-9.8c0-2.6-1-3.9-3-3.9c-2.4,0-3.9,1.7-3.9,4.5v9.1h-4.7V17h3.2l0.9,2.1
			c1.3-1.6,3.4-2.6,5.7-2.6C78.5,16.6,81,19.5,81,23.9z"/>
		<path fill="#0B0B0D" d="M84.8,17h4.7v17.3h-4.7V17L84.8,17z M84.8,10.4h4.7v4.4h-4.7C84.8,14.7,84.8,10.4,84.8,10.4z"/>
		<path fill="#0B0B0D" d="M104,21.1h-4.4v13.2H95V21.1h-3v-3.9h3v-1.6c0-3.3,1.9-5.4,5.5-5.4h3.5v3.7h-2.5c-1.2,0-1.9,0.6-1.9,1.9
			v1.5h4.5L104,21.1L104,21.1z"/>
		<path fill="#0B0B0D" d="M124,17l-7.6,17.1c-2.1,4.7-3.9,6.5-7.8,6.5h-1.9v-4.2h1.6c2.3,0,2.8-0.6,3.9-3.2l0.1-0.1l-7.3-16h5.1
			l4.6,10.7L119,17H124L124,17z"/>
	</g>
	<path fill="#00B828" d="M24,9.4c-5.5,0-10,4.5-10,10c0,4.4,3.6,8.1,8.1,8.1c3.3,0,6.1-2.7,6.1-6.1c0-2.3-1.8-4.1-4.1-4.1
		c-1.7,0-3.1,1.4-3.1,3.1c0,1.2,0.9,2.1,2.1,2.1c0.2,0,0.4,0,0.5-0.1c-0.3,0.5-0.9,0.8-1.5,0.8c-2.1,0-3.8-1.7-3.8-3.8
		c0-3.2,2.6-5.8,5.8-5.8c4.3,0,7.8,3.5,7.8,7.8c0,5.4-4.4,9.8-9.8,9.8c-6.5,0-11.8-5.3-11.8-11.8c0-0.8,0.1-1.6,0.2-2.4H6.2
		C6.1,17.8,6,18.6,6,19.4c0,8.8,7.2,16,16,16c7.7,0,14-6.3,14-14C36,14.8,30.6,9.4,24,9.4L24,9.4z"/>
</g>
</svg>
